PathFileType	4	(X/Y/Z)	C:/Users/beibeiliu/ov580/test_trc\sequence.1_training_dense_right.trc
DataRate	CameraRate	NumFrames	NumMarkers	Units	OrigDataRate	OrigDataStartFrame	OrigNumFrames
120	120	8	19	mm	120	29	84
Frame#	Time	ThumbCMC			ThumbMCP			ThumbIP			ThumbTip			IndexMCP			IndexPIP			IndexTip			MiddleMCP			MiddlePIP			MiddleTip			RingMCP			RingPIP			RingTip			PinkyMCP			PinkyPIP			PinkyTip			BackHand1			BackHand2			BackHand3	
		X0	Y0	Z0	X1	Y1	Z1	X2	Y2	Z2	X3	Y3	Z3	X4	Y4	Z4	X5	Y5	Z5	X6	Y6	Z6	X7	Y7	Z7	X8	Y8	Z8	X9	Y9	Z9	X10	Y10	Z10	X11	Y11	Z11	X12	Y12	Z12	X13	Y13	Z13	X14	Y14	Z14	X15	Y15	Z15	X16	Y16	Z16	X17	Y17	Z17	X18	Y18	Z18	
28	0.233333	67.2152	118.082	76.2618	47.8382	109.147	56.3008	39.0201	100.394	40.3654	28.262	91.2283	23.5633	73.9588	95.0618	11.8764	65.8596	82.7929	-2.52214	51.2344	63.4709	-17.7463	90.2269	77.9653	13.5061	81.8215	63.4681	-3.16224	69.1679	41.8632	-18.4528	102.21	64.5133	24.6943	96.3984	49.9233	9.00025	86.3087	35.6694	-3.12847	113.283	55.0753	44.0276	112.028	41.4354	30.0215	110.259	27.8369	18.1955	112.245	93.8609	63.9374	116.568	103.972	88.966	96.2497	117.424	64.9757	
29	0.241667	79.7448	129.728	77.2427	55.4508	123.299	62.2969	39.5741	113.787	43.6006	30.0705	100.504	29.9995	72.4538	90.2641	17.6143	60.6158	79.9819	6.45507	44.4403	65.1202	-2.98047	84.8268	71.8271	20.1495	70.3393	54.957	8.56877	49.7107	38.7711	-1.85401	95.2575	60.7928	35.8489	81.7782	44.4579	20.8664	67.2033	31.1426	11.6109	105.403	53.5838	54.0704	99.4161	35.1929	43.5041	94.6303	21.176	35.7677	115.03	91.9632	63.4272	125.492	105.77	85.9407	104.487	121.992	65.5837	
30	0.25	90.8946	138.186	74.593	65.6132	136.989	62.7174	48.8322	129.563	51.1993	34.4681	120.533	41.0815	68.9145	101.523	23.3082	52.8177	85.6496	14.7617	34.8106	76.545	7.53819	76.5181	76.3129	28.0526	57.0659	61.2839	17.9664	35.2699	47.3072	14.3344	85.4569	61.7867	41.1085	68.2682	50.3249	31.09	49.2532	34.3976	27.5019	95.2411	55.2836	59.1099	83.5745	40.7326	51.647	75.4958	26.6143	46.7824	116.194	90.8528	65.6599	128.713	104.438	82.0751	113.902	121.793	63.7141	
31	0.258333	104.004	142.157	77.5732	76.0368	147.355	65.248	58.4491	145.6	55.6046	38.282	141.96	45.9987	69.8531	109.403	30.397	46.0878	103.114	19.9854	24.4226	95.4132	15.9917	67.816	84.7682	32.4676	46.5297	75.4252	26.6974	18.4656	69.052	22.2344	73.12	70.5416	45.6081	53.5091	60.3388	40.1878	34.7294	56.1355	35.9418	84.9293	59.0671	65.8986	69.2866	49.8683	60.2746	52.9558	38.9646	54.7438	112.892	91.7582	65.0844	133.987	102.962	80.2579	119.047	117.388	64.1279	
32	0.266667	116.49	144.341	80.1201	88.8223	156.554	68.2927	69.154	160.95	57.6765	49.5265	160.701	51.3228	69.7275	121.706	34.2025	42.671	124.664	24.386	23.0125	123.979	22.5731	63.0701	99.7037	38.5932	36.3655	98.8755	30.7879	10.2196	93.1698	29.9824	64.0037	82.0212	50.7161	41.7328	79.3508	45.0115	18.1098	75.8922	44.2968	72.3593	68.6857	68.6888	54.0389	60.3	69.0175	31.3966	57.1515	64.3634	109.566	87.8671	66.681	128.799	91.2576	81.0968	118.409	113.277	62.4083	
33	0.275	121.465	136.734	79.7182	104.022	157.124	71.2728	84.8429	166.588	60.5915	65.4114	174.28	49.8147	69.9111	131.639	31.6007	49.6836	136.093	24.7821	26.7088	139.999	22.3504	59.2296	106.474	41.271	34.7319	113.578	31.5447	10.5744	118.851	28.689	52.2899	91.279	52.052	32.4586	93.9882	47.4478	12.5166	97.2938	47.4983	56.8508	76.8607	71.0619	39.72	75.9066	70.8483	17.26	74.2517	67.8882	102.097	86.0704	66.7108	120.86	86.2828	79.9293	120.394	111.225	65.0413	
34	0.283333	122.238	127.357	77.1602	111.224	151.9	64.4607	97.0822	160.655	55.8375	83.0405	176.306	42.124	74.1035	127.813	30.7116	55.9666	143.431	16.8245	38.5662	152.24	13.4238	58.5534	116.65	32.9899	38.5498	124.47	25.9302	12.5014	137.91	22.1089	50.3931	101.838	49.0887	31.1415	108.547	44.2353	9.96964	122.67	37.8806	47.157	88.8549	69.8414	29.3918	92.9876	68.2237	12.3067	97.7205	61.0414	91.5328	83.9108	72.35	111.949	79.9461	86.3785	114.424	101.717	64.4566	
35	0.291667	124.137	118.396	78.2464	117.366	143.559	57.76	109.708	157.44	44.8857	96.4523	167.738	33.0798	81.29	127.591	20.4083	65.2613	138.473	11.7092	53.0142	156.205	1.37824	59.14	117.378	26.3063	42.4572	130.697	15.6662	22.2939	147.241	10.4672	47.6446	106.777	45.8091	31.8212	122.682	31.8802	13.8288	137.617	27.0133	40.089	99.9473	62.2771	29.0417	107.201	58.4912	10.8235	116.802	50.2676	84.9144	84.8831	69.2474	100.841	76.3988	90.3597	108.19	92.1345	66.3655	
